#N canvas 806 176 368 356 10;
#X obj 196 144 dac~;
#X obj 205 87 osc~ 200;
#X obj 206 115 *~ 0.2;
#X floatatom 59 57 5 0 0 0 - - -, f 5;
#X obj 59 27 netreceive 3000;
#X obj 59 82 + 5;
#X obj 62 183 /;
#X obj 59 155 swap;
#X obj 59 109 t f b;
#X obj 62 209 min 5000;
#X obj 62 233 max 100;
#X floatatom 62 259 5 0 0 0 - - -, f 5;
#X msg 91 133 40000;
#X obj 62 286 s \$0-freq;
#X obj 205 60 r \$0-freq;
#X connect 1 0 2 0;
#X connect 2 0 0 0;
#X connect 2 0 0 1;
#X connect 3 0 5 0;
#X connect 4 0 3 0;
#X connect 5 0 8 0;
#X connect 6 0 9 0;
#X connect 7 0 6 0;
#X connect 7 1 6 1;
#X connect 8 0 7 0;
#X connect 8 1 12 0;
#X connect 9 0 10 0;
#X connect 10 0 11 0;
#X connect 11 0 13 0;
#X connect 12 0 7 1;
#X connect 14 0 1 0;
